<?xml version="1.0" encoding="UTF-8" standalone="no"?>
<svg width="52px" height="36px" viewBox="0 0 52 36" version="1.1" xmlns="http://www.w3.org/2000/svg" xmlns:xlink="http://www.w3.org/1999/xlink">
    <!-- Generator: Sketch 41.1 (35376) - http://www.bohemiancoding.com/sketch -->
    <title>Bread</title>
    <desc>Created with Sketch.</desc>
    <defs></defs>
    <g id="Page-1" stroke="none" stroke-width="1" fill="none" fill-rule="evenodd">
        <g id="Desktop-HD" transform="translate(-835.000000, -311.000000)">
            <g id="Bread" transform="translate(836.000000, 312.000000)">
                <path d="M42.7272727,0 L20.6927273,0 C23.8118182,0 26.3636364,2.51152632 26.3636364,5.58136842 L26.3636364,12.5263158 C26.3636364,14.5018947 25.5372727,16.2931579 24.21,17.5905263 C23.3027273,18.4772105 22.7272727,19.6385789 22.7272727,20.8965789 L22.7272727,28.2361053 C22.7272727,31.4061579 20.0918182,34 16.8709091,34 L40.7690909,34 C43.8463636,34 46.3636364,31.5224737 46.3636364,28.4937895 L46.3636364,21.5193158 C46.3636364,20.0063158 46.9318182,18.5398421 47.9918182,17.4446842 C49.2336364,16.1607368 50,14.4285263 50,12.5263158 L50,7.15789474 C50,3.22105263 46.7272727,0 42.7272727,0 L42.7272727,0 Z" id="Fill-761" fill="#FFFFFF"></path>
                <path d="M42.7272727,0 L20.6927273,0 C23.8118182,0 26.3636364,2.51152632 26.3636364,5.58136842 L26.3636364,12.5263158 C26.3636364,14.5018947 25.5372727,16.2931579 24.21,17.5905263 C23.3027273,18.4772105 22.7272727,19.6385789 22.7272727,20.8965789 L22.7272727,28.2361053 C22.7272727,31.4061579 20.0918182,34 16.8709091,34 L40.7690909,34 C43.8463636,34 46.3636364,31.5224737 46.3636364,28.4937895 L46.3636364,21.5193158 C46.3636364,20.0063158 46.9318182,18.5398421 47.9918182,17.4446842 C49.2336364,16.1607368 50,14.4285263 50,12.5263158 L50,7.15789474 C50,3.22105263 46.7272727,0 42.7272727,0 L42.7272727,0 Z" id="Stroke-762" stroke="#0D4461" stroke-width="1.8" stroke-linejoin="round"></path>
                <path d="M20.6927273,0 L7.27272727,0 C3.27272727,0 0,3.22105263 0,7.15789474 L0,12.5263158 C0,14.5018947 0.826363636,16.2931579 2.15363636,17.5905263 C3.14909091,18.5631053 3.63636364,19.9338421 3.63636364,21.3144211 L3.63636364,27.7126842 C3.63636364,31.1708421 6.51090909,34 10.0245455,34 L16.8709091,34 C20.0918182,34 22.7272727,31.4061579 22.7272727,28.2361053 L22.7272727,20.8965789 C22.7272727,19.6385789 23.3027273,18.4772105 24.21,17.5905263 C25.5372727,16.2931579 26.3636364,14.5018947 26.3636364,12.5263158 L26.3636364,5.58136842 C26.3636364,2.51152632 23.8118182,0 20.6927273,0 L20.6927273,0 Z" id="Fill-807" fill="#D0E8F9"></path>
                <path d="M20.6927273,0 L7.27272727,0 C3.27272727,0 0,3.22105263 0,7.15789474 L0,12.5263158 C0,14.5018947 0.826363636,16.2931579 2.15363636,17.5905263 C3.14909091,18.5631053 3.63636364,19.9338421 3.63636364,21.3144211 L3.63636364,27.7126842 C3.63636364,31.1708421 6.51090909,34 10.0245455,34 L16.8709091,34 C20.0918182,34 22.7272727,31.4061579 22.7272727,28.2361053 L22.7272727,20.8965789 C22.7272727,19.6385789 23.3027273,18.4772105 24.21,17.5905263 C25.5372727,16.2931579 26.3636364,14.5018947 26.3636364,12.5263158 L26.3636364,5.58136842 C26.3636364,2.51152632 23.8118182,0 20.6927273,0 L20.6927273,0 Z" id="Stroke-808" stroke="#0D4461" stroke-width="1.8" stroke-linejoin="round"></path>
                <path d="M33.6363636,18.7894737 L41.8181818,18.7894737 M28.1818182,18.7894737 L30,18.7894737 M10,21.4736842 L8.63636364,22.8157895 M15.9945455,16.4568947 L14.46,15.3062632 M10.9090909,29.5263158 L9.37545455,28.3756842 M17.43,25.3568421 L15.5818182,25.8981579 M6.20636364,5.36842105 L4.84272727,6.71052632 M7.11545455,13.4210526 L5.58181818,12.2704211 M21.8363636,12.8868947 L21.5154545,11.0151053 M13.6363636,9.25157895 L11.7881818,9.79289474 M19.07,6.05557895 L17.2727273,5.36842105" id="Stroke-809" stroke="#0D4461" stroke-width="1.8" stroke-linecap="round" stroke-linejoin="round"></path>
                <path d="M42.3718182,4.828 C42.9045455,3.33021053 42.9818182,1.58905263 41.4618182,0.253210526 C41.2672727,0.0823157895 41.0045455,0 40.7445455,0 L39.6481818,0 C38.7472727,0 38.2218182,0.999421053 38.7472727,1.71968421 C39.3845455,2.59205263 39.9427273,3.61115789 40.2645455,4.75552632 C40.55,5.77552632 42.0163636,5.82652632 42.3718182,4.828 L42.3718182,4.828 Z" id="Fill-810" fill="#D0E8F9"></path>
                <path d="M42.3718182,4.828 C42.9045455,3.33021053 42.9818182,1.58905263 41.4618182,0.253210526 C41.2672727,0.0823157895 41.0045455,0 40.7445455,0 L39.6481818,0 C38.7472727,0 38.2218182,0.999421053 38.7472727,1.71968421 C39.3845455,2.59205263 39.9427273,3.61115789 40.2645455,4.75552632 C40.55,5.77552632 42.0163636,5.82652632 42.3718182,4.828 L42.3718182,4.828 Z" id="Stroke-811" stroke="#0D4461" stroke-width="1.8" stroke-linejoin="round"></path>
                <path d="M33.8327273,4.828 C34.3663636,3.33021053 34.4436364,1.58905263 32.9236364,0.253210526 C32.7290909,0.0823157895 32.4663636,0 32.2063636,0 L31.11,0 C30.2090909,0 29.6836364,0.999421053 30.2090909,1.71968421 C30.8463636,2.59205263 31.4045455,3.61115789 31.7263636,4.75552632 C32.0118182,5.77552632 33.4781818,5.82652632 33.8327273,4.828 L33.8327273,4.828 Z" id="Fill-812" fill="#D0E8F9"></path>
                <path d="M33.8327273,4.828 C34.3663636,3.33021053 34.4436364,1.58905263 32.9236364,0.253210526 C32.7290909,0.0823157895 32.4663636,0 32.2063636,0 L31.11,0 C30.2090909,0 29.6836364,0.999421053 30.2090909,1.71968421 C30.8463636,2.59205263 31.4045455,3.61115789 31.7263636,4.75552632 C32.0118182,5.77552632 33.4781818,5.82652632 33.8327273,4.828 L33.8327273,4.828 Z" id="Stroke-813" stroke="#0D4461" stroke-width="1.8" stroke-linejoin="round"></path>
            </g>
        </g>
    </g>
</svg>