<?xml version="1.0" encoding="UTF-8" standalone="no"?>
<svg width="250px" height="247px" viewBox="0 0 250 247" version="1.1" xmlns="http://www.w3.org/2000/svg" xmlns:xlink="http://www.w3.org/1999/xlink">
    <!-- Generator: Sketch 41.1 (35376) - http://www.bohemiancoding.com/sketch -->
    <title>Verdict</title>
    <desc>Created with Sketch.</desc>
    <defs></defs>
    <g id="Page-1" stroke="none" stroke-width="1" fill="none" fill-rule="evenodd">
        <g id="Desktop-HD" transform="translate(-892.000000, -394.000000)">
            <g id="Verdict" transform="translate(897.000000, 398.000000)">
                <path d="M93.6455172,50.3365517 L89.1848276,45.8758621 C87.1862069,43.8772414 87.1862069,40.6331034 89.1848276,38.6344828 L125.830345,1.98482759 C127.833103,-0.0137931034 131.073103,-0.0137931034 133.071724,1.98482759 L137.536552,6.44965517 C139.535172,8.44827586 139.535172,11.6924138 137.536552,13.6910345 L100.886897,50.3365517 C98.8882759,52.3351724 95.6441379,52.3351724 93.6455172,50.3365517 L93.6455172,50.3365517 Z" id="Fill-195" fill="#D0E8F9"></path>
                <path d="M93.6455172,50.3365517 L89.1848276,45.8758621 C87.1862069,43.8772414 87.1862069,40.6331034 89.1848276,38.6344828 L125.830345,1.98482759 C127.833103,-0.0137931034 131.073103,-0.0137931034 133.071724,1.98482759 L137.536552,6.44965517 C139.535172,8.44827586 139.535172,11.6924138 137.536552,13.6910345 L100.886897,50.3365517 C98.8882759,52.3351724 95.6441379,52.3351724 93.6455172,50.3365517 L93.6455172,50.3365517 Z" id="Stroke-196" stroke="#0D4461" stroke-width="8.28" stroke-linecap="round" stroke-linejoin="round"></path>
                <path d="M175.572414,132.263448 L171.111724,127.802759 C169.108966,125.804138 169.108966,122.56 171.111724,120.561379 L207.757241,83.9117241 C209.755862,81.9131034 213,81.9131034 214.998621,83.9117241 L219.463448,88.3765517 C221.462069,90.3751724 221.462069,93.6151724 219.463448,95.617931 L182.813793,132.263448 C180.815172,134.266207 177.571034,134.266207 175.572414,132.263448 L175.572414,132.263448 Z" id="Fill-197" fill="#D0E8F9"></path>
                <path d="M175.572414,132.263448 L171.111724,127.802759 C169.108966,125.804138 169.108966,122.56 171.111724,120.561379 L207.757241,83.9117241 C209.755862,81.9131034 213,81.9131034 214.998621,83.9117241 L219.463448,88.3765517 C221.462069,90.3751724 221.462069,93.6151724 219.463448,95.617931 L182.813793,132.263448 C180.815172,134.266207 177.571034,134.266207 175.572414,132.263448 L175.572414,132.263448 Z" id="Stroke-198" stroke="#0D4461" stroke-width="8.28" stroke-linecap="round" stroke-linejoin="round"></path>
                <path d="M207.757241,76.6703448 L202.601379,71.5144828 C200.995862,69.9089655 198.368276,69.8551724 196.783448,71.4772414 C195.173793,73.1282759 192.525517,73.1406897 190.895172,71.5144828 L149.933793,30.5531034 C148.332414,28.9475862 148.274483,26.32 149.896552,24.7351724 C151.551724,23.1213793 151.564138,20.4772414 149.933793,18.8468966 L144.777931,13.6910345 C142.77931,11.6924138 139.535172,11.6924138 137.536552,13.6910345 L100.886897,50.3365517 C98.8882759,52.3351724 98.8882759,55.5793103 100.886897,57.577931 L106.042759,62.737931 C107.648276,64.3393103 110.275862,64.3972414 111.86069,62.7751724 C113.474483,61.12 116.118621,61.1075862 117.748966,62.737931 L124.353103,69.342069 C127.171034,72.16 127.171034,76.7241379 124.353103,79.537931 L91.4151724,112.48 L85.5641379,106.624828 C82.3324138,103.393103 77.0896552,103.393103 73.857931,106.624828 C70.6262069,109.856552 70.6262069,115.09931 73.857931,118.331034 L79.7131034,124.182069 L39.2606897,164.630345 C36.5462069,167.344828 33.1448276,169.273103 29.4165517,170.204138 L17.3958621,173.208276 C13.6717241,174.13931 10.2703448,176.067586 7.55172414,178.782069 L6.20689655,180.131034 C2.23448276,184.103448 0,189.495172 0,195.114483 C0,200.733793 2.23448276,206.125517 6.20689655,210.097931 L11.3503448,215.241379 C15.3227586,219.213793 20.7144828,221.448276 26.3337931,221.448276 C31.9531034,221.448276 37.3448276,219.213793 41.3172414,215.241379 L42.6662069,213.896552 C45.3806897,211.177931 47.3089655,207.776552 48.24,204.048276 L51.2441379,192.031724 C52.1751724,188.303448 54.1034483,184.902069 56.817931,182.187586 L97.2662069,141.73931 L103.117241,147.590345 C106.348966,150.822069 111.591724,150.822069 114.823448,147.590345 C118.055172,144.358621 118.055172,139.12 114.823448,135.884138 L108.972414,130.033103 L141.910345,97.0951724 C144.724138,94.2772414 149.292414,94.2772414 152.106207,97.0951724 L158.710345,103.69931 C160.315862,105.304828 160.369655,107.932414 158.747586,109.517241 C157.096552,111.126897 157.084138,113.775172 158.710345,115.405517 L163.870345,120.561379 C165.868966,122.56 169.108966,122.56 171.111724,120.561379 L207.757241,83.9117241 C209.755862,81.9131034 209.755862,78.6689655 207.757241,76.6703448 L207.757241,76.6703448 Z" id="Fill-199" fill="#FFFFFF"></path>
                <path d="M207.757241,76.6703448 L202.601379,71.5144828 C200.995862,69.9089655 198.368276,69.8551724 196.783448,71.4772414 C195.173793,73.1282759 192.525517,73.1406897 190.895172,71.5144828 L149.933793,30.5531034 C148.332414,28.9475862 148.274483,26.32 149.896552,24.7351724 C151.551724,23.1213793 151.564138,20.4772414 149.933793,18.8468966 L144.777931,13.6910345 C142.77931,11.6924138 139.535172,11.6924138 137.536552,13.6910345 L100.886897,50.3365517 C98.8882759,52.3351724 98.8882759,55.5793103 100.886897,57.577931 L106.042759,62.737931 C107.648276,64.3393103 110.275862,64.3972414 111.86069,62.7751724 C113.474483,61.12 116.118621,61.1075862 117.748966,62.737931 L124.353103,69.342069 C127.171034,72.16 127.171034,76.7241379 124.353103,79.537931 L91.4151724,112.48 L85.5641379,106.624828 C82.3324138,103.393103 77.0896552,103.393103 73.857931,106.624828 C70.6262069,109.856552 70.6262069,115.09931 73.857931,118.331034 L79.7131034,124.182069 L39.2606897,164.630345 C36.5462069,167.344828 33.1448276,169.273103 29.4165517,170.204138 L17.3958621,173.208276 C13.6717241,174.13931 10.2703448,176.067586 7.55172414,178.782069 L6.20689655,180.131034 C2.23448276,184.103448 0,189.495172 0,195.114483 C0,200.733793 2.23448276,206.125517 6.20689655,210.097931 L11.3503448,215.241379 C15.3227586,219.213793 20.7144828,221.448276 26.3337931,221.448276 C31.9531034,221.448276 37.3448276,219.213793 41.3172414,215.241379 L42.6662069,213.896552 C45.3806897,211.177931 47.3089655,207.776552 48.24,204.048276 L51.2441379,192.031724 C52.1751724,188.303448 54.1034483,184.902069 56.817931,182.187586 L97.2662069,141.73931 L103.117241,147.590345 C106.348966,150.822069 111.591724,150.822069 114.823448,147.590345 C118.055172,144.358621 118.055172,139.12 114.823448,135.884138 L108.972414,130.033103 L141.910345,97.0951724 C144.724138,94.2772414 149.292414,94.2772414 152.106207,97.0951724 L158.710345,103.69931 C160.315862,105.304828 160.369655,107.932414 158.747586,109.517241 C157.096552,111.126897 157.084138,113.775172 158.710345,115.405517 L163.870345,120.561379 C165.868966,122.56 169.108966,122.56 171.111724,120.561379 L207.757241,83.9117241 C209.755862,81.9131034 209.755862,78.6689655 207.757241,76.6703448 L207.757241,76.6703448 Z" id="Stroke-200" stroke="#0D4461" stroke-width="8.28" stroke-linecap="round" stroke-linejoin="round"></path>
                <path d="M240,238 L153.103448,238 C153.103448,224.291034 164.217931,213.172414 177.931034,213.172414 L215.172414,213.172414 C228.885517,213.172414 240,224.291034 240,238 L240,238 Z" id="Fill-201" fill="#D0E8F9"></path>
                <path d="M240,238 L153.103448,238 C153.103448,224.291034 164.217931,213.172414 177.931034,213.172414 L215.172414,213.172414 C228.885517,213.172414 240,224.291034 240,238 L240,238 Z" id="Stroke-202" stroke="#0D4461" stroke-width="8.28" stroke-linecap="round" stroke-linejoin="round"></path>
                <path d="M169.655172,200.758621 L223.448276,200.758621" id="Stroke-203" stroke="#0D4461" stroke-width="8.28" stroke-linecap="round" stroke-linejoin="round"></path>
            </g>
        </g>
    </g>
</svg>