<?xml version="1.0" encoding="UTF-8" standalone="no"?>
<svg width="120px" height="120px" viewBox="0 0 120 120" version="1.1" xmlns="http://www.w3.org/2000/svg" xmlns:xlink="http://www.w3.org/1999/xlink">
    <!-- Generator: Sketch 41.1 (35376) - http://www.bohemiancoding.com/sketch -->
    <title>Group 3</title>
    <desc>Created with Sketch.</desc>
    <defs>
        <rect id="path-1" x="0" y="0" width="120" height="120" rx="3"></rect>
        <mask id="mask-2" maskContentUnits="userSpaceOnUse" maskUnits="objectBoundingBox" x="0" y="0" width="120" height="120" fill="white">
            <use xlink:href="#path-1"></use>
        </mask>
        <rect id="path-3" x="1" y="0" width="119" height="18" rx="3"></rect>
        <mask id="mask-4" maskContentUnits="userSpaceOnUse" maskUnits="objectBoundingBox" x="0" y="0" width="119" height="18" fill="white">
            <use xlink:href="#path-3"></use>
        </mask>
    </defs>
    <g id="Page-1" stroke="none" stroke-width="1" fill="none" fill-rule="evenodd">
        <g id="Desktop-HD" transform="translate(-267.000000, -512.000000)">
            <g id="Group-3" transform="translate(267.000000, 512.000000)">
                <use id="Rectangle-2" stroke="#0D4461" mask="url(#mask-2)" stroke-width="8" fill="#FFFFFF" xlink:href="#path-1"></use>
                <g id="Group-2" transform="translate(16.000000, 34.000000)">
                    <polygon id="Fill-3917" fill="#D0E8F9" points="8 45 20 45 20 71 8 71"></polygon>
                    <polygon id="Stroke-3918" stroke="#0D4461" stroke-width="4" stroke-linecap="round" stroke-linejoin="round" points="8 45 20 45 20 71 8 71"></polygon>
                    <polygon id="Fill-3919" fill="#FFFFFF" points="20 35 32 35 32 71 20 71"></polygon>
                    <polygon id="Stroke-3920" stroke="#0D4461" stroke-width="4" stroke-linecap="round" stroke-linejoin="round" points="20 35 32 35 32 71 20 71"></polygon>
                    <polygon id="Fill-3921" fill="#D0E8F9" points="32 30 44 30 44 72 32 72"></polygon>
                    <polygon id="Stroke-3922" stroke="#0D4461" stroke-width="4" stroke-linecap="round" stroke-linejoin="round" points="32 29 44 29 44 71 32 71"></polygon>
                    <polygon id="Fill-3923" fill="#D0E8F9" points="44 23 56 23 56 71 44 71"></polygon>
                    <polygon id="Stroke-3924" stroke="#0D4461" stroke-width="4" stroke-linecap="round" stroke-linejoin="round" points="44 23 56 23 56 71 44 71"></polygon>
                    <polygon id="Fill-3925" fill="#D0E8F9" points="56 8 68 8 68 71 56 71"></polygon>
                    <polygon id="Stroke-3926" stroke="#0D4461" stroke-width="4" stroke-linecap="round" stroke-linejoin="round" points="56 8 68 8 68 71 56 71"></polygon>
                    <polygon id="Fill-3927" fill="#D0E8F9" points="68 0 80 0 80 71 68 71"></polygon>
                    <polygon id="Stroke-3928" stroke="#0D4461" stroke-width="4" stroke-linecap="round" stroke-linejoin="round" points="68 0 80 0 80 71 68 71"></polygon>
                    <path d="M20,37 C20,38.104 20.896,39 22,39 C23.104,39 24,38.104 24,37 C24,35.896 23.104,35 22,35 C20.896,35 20,35.896 20,37" id="Fill-3932" fill="#0D4461"></path>
                    <path d="M28,37 C28,38.104 28.896,39 30,39 C31.104,39 32,38.104 32,37 C32,35.896 31.104,35 30,35 C28.896,35 28,35.896 28,37" id="Fill-3933" fill="#0D4461"></path>
                    <path d="M24,41 C24,42.104 24.896,43 26,43 C27.104,43 28,42.104 28,41 C28,39.896 27.104,39 26,39 C24.896,39 24,39.896 24,41" id="Fill-3934" fill="#0D4461"></path>
                    <path d="M20,45 C20,46.104 20.896,47 22,47 C23.104,47 24,46.104 24,45 C24,43.896 23.104,43 22,43 C20.896,43 20,43.896 20,45" id="Fill-3935" fill="#0D4461"></path>
                    <path d="M28,45 C28,46.104 28.896,47 30,47 C31.104,47 32,46.104 32,45 C32,43.896 31.104,43 30,43 C28.896,43 28,43.896 28,45" id="Fill-3936" fill="#0D4461"></path>
                    <path d="M24,49 C24,50.104 24.896,51 26,51 C27.104,51 28,50.104 28,49 C28,47.896 27.104,47 26,47 C24.896,47 24,47.896 24,49" id="Fill-3937" fill="#0D4461"></path>
                    <path d="M20,53 C20,54.104 20.896,55 22,55 C23.104,55 24,54.104 24,53 C24,51.896 23.104,51 22,51 C20.896,51 20,51.896 20,53" id="Fill-3938" fill="#0D4461"></path>
                    <path d="M28,53 C28,54.104 28.896,55 30,55 C31.104,55 32,54.104 32,53 C32,51.896 31.104,51 30,51 C28.896,51 28,51.896 28,53" id="Fill-3939" fill="#0D4461"></path>
                    <path d="M24,57 C24,58.104 24.896,59 26,59 C27.104,59 28,58.104 28,57 C28,55.896 27.104,55 26,55 C24.896,55 24,55.896 24,57" id="Fill-3940" fill="#0D4461"></path>
                    <path d="M20,61 C20,62.104 20.896,63 22,63 C23.104,63 24,62.104 24,61 C24,59.896 23.104,59 22,59 C20.896,59 20,59.896 20,61" id="Fill-3941" fill="#0D4461"></path>
                    <path d="M28,61 C28,62.104 28.896,63 30,63 C31.104,63 32,62.104 32,61 C32,59.896 31.104,59 30,59 C28.896,59 28,59.896 28,61" id="Fill-3942" fill="#0D4461"></path>
                    <path d="M20,69 C20,70.104 20.896,71 22,71 C23.104,71 24,70.104 24,69 C24,67.896 23.104,67 22,67 C20.896,67 20,67.896 20,69" id="Fill-3943" fill="#0D4461"></path>
                    <path d="M28,69 C28,70.104 28.896,71 30,71 C31.104,71 32,70.104 32,69 C32,67.896 31.104,67 30,67 C28.896,67 28,67.896 28,69" id="Fill-3944" fill="#0D4461"></path>
                    <path d="M24,65 C24,66.104 24.896,67 26,67 C27.104,67 28,66.104 28,65 C28,63.896 27.104,63 26,63 C24.896,63 24,63.896 24,65" id="Fill-3945" fill="#0D4461"></path>
                    <path d="M0,71 L88,71" id="Stroke-3946" stroke="#0D4461" stroke-width="4" stroke-linecap="round" stroke-linejoin="round"></path>
                </g>
                <use id="Rectangle-4" stroke="#0D4461" mask="url(#mask-4)" stroke-width="8" fill="#D0E8F9" xlink:href="#path-3"></use>
            </g>
        </g>
    </g>
</svg>