<?xml version="1.0" encoding="UTF-8" standalone="no"?>
<svg width="120px" height="120px" viewBox="0 0 120 120" version="1.1" xmlns="http://www.w3.org/2000/svg" xmlns:xlink="http://www.w3.org/1999/xlink">
    <!-- Generator: Sketch 41.1 (35376) - http://www.bohemiancoding.com/sketch -->
    <title>Cabin</title>
    <desc>Created with Sketch.</desc>
    <defs></defs>
    <g id="Page-1" stroke="none" stroke-width="1" fill="none" fill-rule="evenodd">
        <g id="Desktop-HD" transform="translate(-660.000000, -510.000000)">
            <g id="Cabin" transform="translate(662.000000, 512.000000)">
                <path d="M106.23,60.898 L57.91,25.64 L9.658,59.098 C7.032,61.118 3.264,60.626 1.244,58 C-0.776,55.374 -0.284,51.606 2.342,49.586 L58.09,10.36 L113.77,51.562 C116.348,53.644 116.75,57.422 114.668,60 L114.666,60 C112.584,62.578 108.808,62.98 106.23,60.898 L106.23,60.898 Z" id="Fill-2499" fill="#D0E8F9"></path>
                <path d="M106.23,60.898 L57.91,25.64 L9.658,59.098 C7.032,61.118 3.264,60.626 1.244,58 C-0.776,55.374 -0.284,51.606 2.342,49.586 L58.09,10.36 L113.77,51.562 C116.348,53.644 116.75,57.422 114.668,60 L114.666,60 C112.584,62.578 108.808,62.98 106.23,60.898 L106.23,60.898 Z" id="Stroke-2500" stroke="#0D4461" stroke-width="4" stroke-linejoin="round"></path>
                <polygon id="Fill-2501" fill="#FFFFFF" points="102 42.852 102 24 90 24 90 33.972"></polygon>
                <polygon id="Stroke-2502" stroke="#0D4461" stroke-width="4" stroke-linejoin="round" points="102 42.852 102 24 90 24 90 33.972"></polygon>
                <path d="M101,76 L15,76 C12.238,76 10,73.762 10,71 C10,68.238 12.238,66 15,66 L101,66 C103.762,66 106,68.238 106,71 C106,73.762 103.762,76 101,76 L101,76 Z" id="Fill-2503" fill="#D0E8F9"></path>
                <path d="M101,76 L15,76 C12.238,76 10,73.762 10,71 C10,68.238 12.238,66 15,66 L101,66 C103.762,66 106,68.238 106,71 C106,73.762 103.762,76 101,76 L101,76 Z" id="Stroke-2504" stroke="#0D4461" stroke-width="4" stroke-linejoin="round"></path>
                <polyline id="Stroke-2506" stroke="#0D4461" stroke-width="4" stroke-linecap="round" stroke-linejoin="round" points="76 46 85.812 46 72.108 36 42.968 36 28.546 46 40 46"></polyline>
                <polygon id="Fill-2507" fill="#FFFFFF" points="46 76 70 76 70 116 46 116"></polygon>
                <polygon id="Stroke-2508" stroke="#0D4461" stroke-width="4" stroke-linejoin="round" points="46 76 70 76 70 116 46 116"></polygon>
                <path d="M15,106 C12.238,106 10,108.238 10,111 C10,113.762 12.238,116 15,116 L46,116 L46,106 L15,106 L15,106 Z" id="Fill-2509" fill="#D0E8F9"></path>
                <path d="M15,106 C12.238,106 10,108.238 10,111 C10,113.762 12.238,116 15,116 L46,116 L46,106 L15,106 L15,106 Z" id="Stroke-2510" stroke="#0D4461" stroke-width="4" stroke-linejoin="round"></path>
                <path d="M101,106 L70,106 L70,116 L101,116 C103.762,116 106,113.762 106,111 C106,108.238 103.762,106 101,106 L101,106 Z" id="Fill-2511" fill="#D0E8F9"></path>
                <path d="M101,106 L70,106 L70,116 L101,116 C103.762,116 106,113.762 106,111 C106,108.238 103.762,106 101,106 L101,106 Z" id="Stroke-2512" stroke="#0D4461" stroke-width="4" stroke-linejoin="round"></path>
                <path d="M46,106 L46,96 M14,96 L14,106 M100,106 L100,96 M70,96 L70,106" id="Stroke-2513" stroke="#0D4461" stroke-width="4" stroke-linejoin="round"></path>
                <path d="M46,86 L15,86 C12.238,86 10,88.238 10,91 C10,93.762 12.238,96 15,96 L46,96 L46,86 L46,86 Z" id="Fill-2514" fill="#D0E8F9"></path>
                <path d="M46,86 L15,86 C12.238,86 10,88.238 10,91 C10,93.762 12.238,96 15,96 L46,96 L46,86 L46,86 Z" id="Stroke-2515" stroke="#0D4461" stroke-width="4" stroke-linejoin="round"></path>
                <path d="M101,86 L70,86 L70,96 L101,96 C103.762,96 106,93.762 106,91 C106,88.238 103.762,86 101,86 L101,86 Z" id="Fill-2516" fill="#D0E8F9"></path>
                <path d="M101,86 L70,86 L70,96 L101,96 C103.762,96 106,93.762 106,91 C106,88.238 103.762,86 101,86 L101,86 Z" id="Stroke-2517" stroke="#0D4461" stroke-width="4" stroke-linejoin="round"></path>
                <path d="M100,86 L100,76 M70,76 L70,86 M46,86 L46,76 M14,76 L14,86" id="Stroke-2518" stroke="#0D4461" stroke-width="4" stroke-linejoin="round"></path>
                <path d="M54,96 C54,97.104 53.104,98 52,98 C50.896,98 50,97.104 50,96 C50,94.896 50.896,94 52,94 C53.104,94 54,94.896 54,96" id="Fill-2519" fill="#0D4461"></path>
                <polygon id="Fill-2520" fill="#FFFFFF" points="48 46 68 46 68 66 48 66"></polygon>
                <polygon id="Stroke-2521" stroke="#0D4461" stroke-width="4" stroke-linejoin="round" points="48 46 68 46 68 66 48 66"></polygon>
                <path d="M38,56 L14.126,56 L14,56.088 L14,66 M100,66 L100,56.352 L99.516,56 L78,56" id="Stroke-2522" stroke="#0D4461" stroke-width="4" stroke-linecap="round" stroke-linejoin="round"></path>
                <path d="M58,46 L58,66 M48,56 L68,56" id="Stroke-2523" stroke="#0D4461" stroke-width="4" stroke-linejoin="round"></path>
                <path d="M100,18 L100,10 M100,4 L100,0 M92,12 L92,8 M92,2 L92,0" id="Stroke-2524" stroke="#0D4461" stroke-width="4" stroke-linecap="round" stroke-linejoin="round"></path>
            </g>
        </g>
    </g>
</svg>