<?xml version="1.0" encoding="UTF-8" standalone="no"?>
<svg width="60px" height="55px" viewBox="0 0 60 55" version="1.1" xmlns="http://www.w3.org/2000/svg" xmlns:xlink="http://www.w3.org/1999/xlink">
    <!-- Generator: Sketch 41.2 (35397) - http://www.bohemiancoding.com/sketch -->
    <title>Open Sign</title>
    <desc>Created with Sketch.</desc>
    <defs></defs>
    <g id="Page-1" stroke="none" stroke-width="1" fill="none" fill-rule="evenodd">
        <g id="Desktop-HD" transform="translate(-49.000000, -819.000000)">
            <g id="Open-Sign" transform="translate(50.000000, 820.000000)">
                <path d="M33,4 C33,6.209 31.209,8 29,8 C26.791,8 25,6.209 25,4 C25,1.791 26.791,0 29,0 C31.209,0 33,1.791 33,4 L33,4 Z" id="Fill-218" fill="#D0E8F9"></path>
                <path d="M33,4 C33,6.209 31.209,8 29,8 C26.791,8 25,6.209 25,4 C25,1.791 26.791,0 29,0 C31.209,0 33,1.791 33,4 L33,4 Z" id="Stroke-219" stroke="#0D4461" stroke-width="2" stroke-linecap="round" stroke-linejoin="round"></path>
                <polygon id="Fill-220" fill="#FFFFFF" points="0 21 58 21 58 53 0 53"></polygon>
                <polygon id="Stroke-221" stroke="#0D4461" stroke-width="2" stroke-linecap="round" stroke-linejoin="round" points="0 21 58 21 58 53 0 53"></polygon>
                <path d="M25,4 L8,21" id="Fill-222" fill="#FFFFFF"></path>
                <path d="M25,4 L8,21" id="Stroke-223" stroke="#0D4461" stroke-width="2" stroke-linecap="round" stroke-linejoin="round"></path>
                <path d="M33,4 L50,21" id="Stroke-224" stroke="#0D4461" stroke-width="2" stroke-linecap="round" stroke-linejoin="round"></path>
                <path d="M11,47 L11,47 C8.8,47 7,45.2 7,43 L7,31 C7,28.8 8.8,27 11,27 C13.2,27 15,28.8 15,31 L15,43 C15,45.2 13.2,47 11,47 L11,47 Z" id="Fill-225" fill="#FFFFFF"></path>
                <path d="M11,47 L11,47 C8.8,47 7,45.2 7,43 L7,31 C7,28.8 8.8,27 11,27 C13.2,27 15,28.8 15,31 L15,43 C15,45.2 13.2,47 11,47 L11,47 Z" id="Stroke-226" stroke="#0D4461" stroke-width="2" stroke-linecap="round" stroke-linejoin="round"></path>
                <path d="M23,40 L23,40 C20.8,40 19,38.2 19,36 L19,31 C19,28.8 20.8,27 23,27 C25.2,27 27,28.8 27,31 L27,36 C27,38.2 25.2,40 23,40 L23,40 Z" id="Fill-227" fill="#FFFFFF"></path>
                <path d="M23,40 L23,40 C20.8,40 19,38.2 19,36 L19,31 C19,28.8 20.8,27 23,27 C25.2,27 27,28.8 27,31 L27,36 C27,38.2 25.2,40 23,40 L23,40 Z" id="Stroke-228" stroke="#0D4461" stroke-width="2" stroke-linecap="round" stroke-linejoin="round"></path>
                <path d="M31,47 L31,27 M51,27 L51,47 M43,47 L43,27 M19,36 L19,47 M39,37 L31,37 M39,27 L31,27 M39,47 L31,47 M43,27 L51,47" id="Stroke-229" stroke="#0D4461" stroke-width="2" stroke-linecap="round" stroke-linejoin="round"></path>
            </g>
        </g>
    </g>
</svg>