<?xml version="1.0" encoding="UTF-8" standalone="no"?>
<svg width="44px" height="44px" viewBox="0 0 44 44" version="1.1" xmlns="http://www.w3.org/2000/svg" xmlns:xlink="http://www.w3.org/1999/xlink">
    <!-- Generator: Sketch 41.1 (35376) - http://www.bohemiancoding.com/sketch -->
    <title>Silly</title>
    <desc>Created with Sketch.</desc>
    <defs></defs>
    <g id="Page-1" stroke="none" stroke-width="1" fill="none" fill-rule="evenodd">
        <g id="Desktop-HD" transform="translate(-1169.000000, -676.000000)">
            <g id="Silly" transform="translate(1170.000000, 677.000000)">
                <path d="M25,35.317 C26.466,34.722 27.789,33.845 28.891,32.744 C29.956,31.678 30.93,30.521 31.523,29.113 L36.88,34.469 C36.92,34.51 36.948,34.557 36.986,34.599 C40.107,30.934 42,26.191 42,21 C42,9.402 32.598,0 21,0 C9.402,0 0,9.402 0,21 C0,32.598 9.402,42 21,42 C24.128,42 27.086,41.297 29.754,40.071 L25,35.317 L25,35.317 Z" id="Fill-606" fill="#FFFFFF"></path>
                <path d="M25,35.317 C26.466,34.722 27.789,33.845 28.891,32.744 C29.956,31.678 30.93,30.521 31.523,29.113 L36.88,34.469 C36.92,34.51 36.948,34.557 36.986,34.599 C40.107,30.934 42,26.191 42,21 C42,9.402 32.598,0 21,0 C9.402,0 0,9.402 0,21 C0,32.598 9.402,42 21,42 C24.128,42 27.086,41.297 29.754,40.071 L25,35.317 L25,35.317 Z" id="Stroke-607" stroke="#0D4461" stroke-width="2" stroke-linecap="round" stroke-linejoin="round"></path>
                <path d="M8,16 C8,13.791 9.791,12 12,12 C14.209,12 16,13.791 16,16 M26,16 C26,13.791 27.791,12 30,12 C32.209,12 34,13.791 34,16" id="Stroke-612" stroke="#0D4461" stroke-width="2" stroke-linecap="round" stroke-linejoin="round"></path>
                <path d="M28.891,32.744 C27.789,33.845 26.466,34.722 25,35.317 L30.516,40.833 C32.072,42.389 34.617,42.389 36.173,40.833 L36.88,40.126 C38.436,38.571 38.436,36.025 36.88,34.469 L31.523,29.113 C30.93,30.521 29.956,31.678 28.891,32.744 L28.891,32.744 Z" id="Fill-613" fill="#D0E8F9"></path>
                <path d="M28.891,32.744 C27.789,33.845 26.466,34.722 25,35.317 L30.516,40.833 C32.072,42.389 34.617,42.389 36.173,40.833 L36.88,40.126 C38.436,38.571 38.436,36.025 36.88,34.469 L31.523,29.113 C30.93,30.521 29.956,31.678 28.891,32.744 L28.891,32.744 Z" id="Stroke-614" stroke="#0D4461" stroke-width="2" stroke-linecap="round" stroke-linejoin="round"></path>
                <path d="M33.345,36.59 C32.172,35.418 29.391,32.609 29,33 M32,25 C32,31.075 27.075,36 21,36 C14.925,36 10,31.075 10,25" id="Stroke-615" stroke="#0D4461" stroke-width="2" stroke-linecap="round" stroke-linejoin="round"></path>
            </g>
        </g>
    </g>
</svg>