<?xml version="1.0" encoding="UTF-8" standalone="no"?>
<svg width="98px" height="115px" viewBox="0 0 98 115" version="1.1" xmlns="http://www.w3.org/2000/svg" xmlns:xlink="http://www.w3.org/1999/xlink">
    <!-- Generator: Sketch 41.1 (35376) - http://www.bohemiancoding.com/sketch -->
    <title>Feeding Set</title>
    <desc>Created with Sketch.</desc>
    <defs></defs>
    <g id="Page-1" stroke="none" stroke-width="1" fill="none" fill-rule="evenodd">
        <g id="Desktop-HD" transform="translate(-1064.000000, -515.000000)">
            <g id="Feeding-Set" transform="translate(1066.000000, 517.000000)">
                <path d="M19.096,111 L19.096,111 C13.02,111 8.094,106.076 8.054,100.374 L8.054,60.96 C8.094,58.606 9.7,57 11.68,57 L26.51,57 C28.49,57 30.094,58.606 30,60.46 L30,99.876 C30.094,106.076 25.17,111 19.096,111 L19.096,111 Z" id="Fill-153" fill="#FFFFFF"></path>
                <path d="M19.096,111 L19.096,111 C13.02,111 8.094,106.076 8.054,100.374 L8.054,60.96 C8.094,58.606 9.7,57 11.68,57 L26.51,57 C28.49,57 30.094,58.606 30,60.46 L30,99.876 C30.094,106.076 25.17,111 19.096,111 L19.096,111 Z" id="Stroke-154" stroke="#0D4461" stroke-width="4" stroke-linejoin="round"></path>
                <polygon id="Fill-155" fill="#FFFFFF" points="14 39 24 39 24 57 14 57"></polygon>
                <polygon id="Stroke-156" stroke="#0D4461" stroke-width="4" stroke-linejoin="round" points="14 39 24 39 24 57 14 57"></polygon>
                <path d="M72.946,111 L72.946,111 C66.87,111 61.946,106.076 62,100 L62,60.586 C61.946,58.606 63.55,57 65.532,57 L80.36,57 C82.34,57 83.946,58.606 84,60.586 L84,100 C83.946,106.076 79.02,111 72.946,111 L72.946,111 Z" id="Fill-157" fill="#FFFFFF"></path>
                <path d="M72.946,111 L72.946,111 C66.87,111 61.946,106.076 62,100 L62,60.586 C61.946,58.606 63.55,57 65.532,57 L80.36,57 C82.34,57 83.946,58.606 84,60.586 L84,100 C83.946,106.076 79.02,111 72.946,111 L72.946,111 Z" id="Stroke-158" stroke="#0D4461" stroke-width="4" stroke-linejoin="round"></path>
                <polygon id="Fill-159" fill="#FFFFFF" points="68 39 78 39 78 57 68 57"></polygon>
                <polygon id="Stroke-160" stroke="#0D4461" stroke-width="4" stroke-linejoin="round" points="68 39 78 39 78 57 68 57"></polygon>
                <path d="M37.986,20.05 C37.986,18.876 37.912,17.76 37.772,16.698 C34.992,-4.602 3.106,-4.604 0.322,16.696 C0.184,17.758 0.11,18.876 0.11,20.05 C0.11,20.05 -1.118,40.57 19.048,38.996 C39.214,40.57 37.986,20.05 37.986,20.05 L37.986,20.05 Z" id="Fill-161" fill="#D0E8F9"></path>
                <path d="M37.986,20.05 C37.986,18.876 37.912,17.76 37.772,16.698 C34.992,-4.602 3.106,-4.604 0.322,16.696 C0.184,17.758 0.11,18.876 0.11,20.05 C0.11,20.05 -1.118,40.57 19.048,38.996 C39.214,40.57 37.986,20.05 37.986,20.05 L37.986,20.05 Z" id="Stroke-162" stroke="#0D4461" stroke-width="4" stroke-linejoin="round"></path>
                <path d="M74,3 L74,3 C76.21,3 78,4.792 78.028,7 L78,14.944 C77.972,17.164 79.772,18.962 81.992,18.962 C84.176,18.962 85.966,17.206 86.008,15.02 C86.278,1.162 87.972,2.962 87.972,2.962 C87.972,2.962 94.472,13.338 93.972,24.962 C93.974,25.012 94.596,39.838 75.972,38.962 L71.972,38.962 C53.348,39.838 53.972,24.962 53.972,24.962 C53.472,13.338 59.972,2.962 59.972,2.962 C59.972,2.962 61.668,1.162 61.936,15.02 C61.98,17.206 63.768,18.962 65.954,18.962 C68.174,18.962 69.972,17.164 70,14.944 L70.028,7 C70,4.792 71.79,3 74,3 L74,3 Z" id="Fill-163" fill="#D0E8F9"></path>
                <path d="M74,3 L74,3 C76.21,3 78,4.792 78.028,7 L78,14.944 C77.972,17.164 79.772,18.962 81.992,18.962 C84.176,18.962 85.966,17.206 86.008,15.02 C86.278,1.162 87.972,2.962 87.972,2.962 C87.972,2.962 94.472,13.338 93.972,24.962 C93.974,25.012 94.596,39.838 75.972,38.962 L71.972,38.962 C53.348,39.838 53.972,24.962 53.972,24.962 C53.472,13.338 59.972,2.962 59.972,2.962 C59.972,2.962 61.668,1.162 61.936,15.02 C61.98,17.206 63.768,18.962 65.954,18.962 C68.174,18.962 69.972,17.164 70,14.944 L70.028,7 C70,4.792 71.79,3 74,3 L74,3 Z" id="Stroke-164" stroke="#0D4461" stroke-width="4" stroke-linejoin="round"></path>
                <path d="M30,21 C30,14.368 24.632,9 18,9" id="Stroke-165" stroke="#0D4461" stroke-width="4" stroke-linecap="round" stroke-linejoin="round"></path>
                <polygon id="Fill-166" fill="#D0E8F9" points="8 85 30 85 30 95 8 95"></polygon>
                <polygon id="Stroke-167" stroke="#0D4461" stroke-width="4" stroke-linejoin="round" points="8 85 30 85 30 95 8 95"></polygon>
                <polygon id="Fill-168" fill="#D0E8F9" points="62 75 84 75 84 85 62 85"></polygon>
                <polygon id="Stroke-169" stroke="#0D4461" stroke-width="4" stroke-linejoin="round" points="62 75 84 75 84 85 62 85"></polygon>
            </g>
        </g>
    </g>
</svg>