<?xml version="1.0" encoding="UTF-8" standalone="no"?>
<svg width="50px" height="52px" viewBox="0 0 50 52" version="1.1" xmlns="http://www.w3.org/2000/svg" xmlns:xlink="http://www.w3.org/1999/xlink">
    <!-- Generator: Sketch 41.2 (35397) - http://www.bohemiancoding.com/sketch -->
    <title>Silly</title>
    <desc>Created with Sketch.</desc>
    <defs></defs>
    <g id="Page-1" stroke="none" stroke-width="1" fill="none" fill-rule="evenodd">
        <g id="Desktop-HD" transform="translate(-58.000000, -961.000000)" stroke="#0D4461">
            <g id="Silly" transform="translate(59.000000, 961.000000)">
                <path d="M8,27 C8,24.791 9.791,23 12,23 C14.209,23 16,24.791 16,27 M26,27 C26,24.791 27.791,23 30,23 C32.209,23 34,24.791 34,27" id="Stroke-612" stroke-width="2" stroke-linecap="round" stroke-linejoin="round" transform="translate(21.000000, 25.000000) rotate(180.000000) translate(-21.000000, -25.000000) "></path>
                <path d="M34.7224599,45.8894015 C36.2448808,44.6446254 36.948,43.557 36.986,43.599 C40.107,39.934 42,35.191 42,30 C42,18.402 32.598,9 21,9 C9.402,9 0,18.402 0,30 C0,41.598 9.402,51 21,51 C24.128,51 27.086,50.297 29.754,49.071 L31.2986897,48.114297 C31.2986897,48.114297 33.2000391,47.1341776 34.7224599,45.8894015 Z" id="Stroke-607" stroke-width="2" stroke-linecap="round" stroke-linejoin="round"></path>
                <circle id="Oval" stroke-width="2" cx="21" cy="42" r="3"></circle>
                <path d="M35.5,3.5 L41.5,3.5" id="Line" stroke-linecap="round"></path>
                <path d="M35.5,9.5 L41.5,9.5" id="Line" stroke-linecap="round"></path>
                <path d="M35.5,9.5 L41.4647517,3.50383788" id="Line" stroke-linecap="round"></path>
                <path d="M43.3571429,1 L47.6428571,1" id="Line" stroke-width="0.75" stroke-linecap="round"></path>
                <path d="M43.5,6 L47.6428571,6" id="Line" stroke-width="0.75" stroke-linecap="round"></path>
                <path d="M43.4510821,5.99680177 L47.711619,1" id="Line" stroke-width="0.75" stroke-linecap="round"></path>
            </g>
        </g>
    </g>
</svg>