<?xml version="1.0" encoding="UTF-8" standalone="no"?>
<svg width="17px" height="28px" viewBox="0 0 17 28" version="1.1" xmlns="http://www.w3.org/2000/svg" xmlns:xlink="http://www.w3.org/1999/xlink">
    <!-- Generator: Sketch 41.1 (35376) - http://www.bohemiancoding.com/sketch -->
    <title>social_tumblr</title>
    <desc>Created with Sketch.</desc>
    <defs></defs>
    <g id="Page-1" stroke="none" stroke-width="1" fill="none" fill-rule="evenodd">
        <g id="Desktop-HD" transform="translate(-770.000000, -949.000000)" fill="#0D4461">
            <g id="social_tumblr" transform="translate(770.000000, 949.000000)">
                <path d="M3.6516,20.6856 C3.6516,21.9283 3.7825,22.8786 4.0426,23.5331 C4.3044,24.1876 4.7702,24.8064 5.4468,25.3878 C6.12,25.9658 6.936,26.4163 7.8914,26.7308 C8.8485,27.0436 9.5795,27.2 10.8239,27.2 C11.9187,27.2 12.937,27.0895 13.8805,26.8702 C14.8223,26.6492 15.8355,26.3296 16.9966,25.7839 L16.9966,21.6937 C15.6349,22.5896 14.8206,22.7715 13.4436,22.7715 C12.6701,22.7715 11.9833,22.5913 11.3798,22.2292 C10.9259,21.9623 10.5111,21.4999 10.3445,21.0562 C10.1762,20.6091 10.1966,19.6996 10.1966,18.1203 L10.2,11.9 L16.9983,11.9 L16.9983,6.8 L10.2,6.8 L10.2,0 L5.814,0 C5.6406,1.4025 5.321,2.5602 4.8603,3.4663 C4.3996,4.3758 3.7876,5.1527 3.0243,5.8021 C2.2661,6.4498 1.071,6.9479 0.0034,7.2947 L0.0034,11.9 L3.6533,11.9 L3.6533,20.6856 L3.6516,20.6856 Z" id="Shape"></path>
            </g>
        </g>
    </g>
</svg>