<?xml version="1.0" encoding="UTF-8" standalone="no"?>
<svg width="32px" height="26px" viewBox="0 0 32 26" version="1.1" xmlns="http://www.w3.org/2000/svg" xmlns:xlink="http://www.w3.org/1999/xlink">
    <!-- Generator: Sketch 41.1 (35376) - http://www.bohemiancoding.com/sketch -->
    <title>social_twitter</title>
    <desc>Created with Sketch.</desc>
    <defs></defs>
    <g id="Page-1" stroke="none" stroke-width="1" fill="none" fill-rule="evenodd">
        <g id="Desktop-HD" transform="translate(-704.000000, -955.000000)" fill="#0D4461">
            <g id="social_twitter" transform="translate(703.000000, 955.000000)">
                <path d="M32.118,0.48 C30.85,1.232 29.444,1.778 27.948,2.074 C26.75,0.796 25.044,0 23.156,0 C19.53,0 16.59,2.94 16.59,6.564 C16.59,7.078 16.648,7.58 16.76,8.06 C11.304,7.786 6.466,5.172 3.228,1.2 C2.662,2.168 2.34,3.296 2.34,4.5 C2.34,6.778 3.5,8.788 5.26,9.964 C4.184,9.928 3.172,9.632 2.286,9.14 L2.286,9.222 C2.286,12.402 4.55,15.056 7.552,15.66 C7.002,15.81 6.422,15.89 5.822,15.89 C5.398,15.89 4.988,15.848 4.586,15.772 C5.422,18.38 7.846,20.278 10.718,20.332 C8.472,22.092 5.64,23.142 2.564,23.142 C2.034,23.142 1.512,23.11 0.998,23.05 C3.904,24.912 7.354,26 11.062,26 C23.138,26 29.742,15.996 29.742,7.32 C29.742,7.036 29.736,6.752 29.722,6.47 C31.008,5.548 32.122,4.392 33.002,3.076 C31.824,3.598 30.56,3.952 29.232,4.11 C30.588,3.298 31.628,2.01 32.118,0.48 L32.118,0.48 Z" id="Shape"></path>
            </g>
        </g>
    </g>
</svg>